<?xml version="1.0" encoding="UTF-8"?>
<!DOCTYPE svg PUBLIC "-//W3C//DTD SVG 1.1//EN" "http://www.w3.org/Graphics/SVG/1.1/DTD/svg11.dtd">
<svg xmlns="http://www.w3.org/2000/svg" version="1.1" width="145px" height="121px" style="shape-rendering:geometricPrecision; text-rendering:geometricPrecision; image-rendering:optimizeQuality; fill-rule:evenodd; clip-rule:evenodd" xmlns:xlink="http://www.w3.org/1999/xlink">
<g><path style="opacity:0.814" fill="#fc0404" d="M 20.5,18.5 C 25.1782,18.6818 27.6782,21.0151 28,25.5C 23.5019,30.295 18.6685,34.795 13.5,39C 8.91671,39.9337 7.41671,38.1004 9,33.5C 10.8783,31.9571 12.3783,30.1238 13.5,28C 13.1667,27.6667 12.8333,27.3333 12.5,27C 16.7211,25.6127 19.3878,22.7793 20.5,18.5 Z"/></g>
<g><path style="opacity:0.948" fill="#fae206" d="M 121.5,38.5 C 131.858,39.6479 135.358,44.9813 132,54.5C 128.603,62.5436 122.603,67.5436 114,69.5C 113.228,69.3552 112.561,69.0219 112,68.5C 111.697,70.8884 110.863,73.0551 109.5,75C 110.833,77 110.833,79 109.5,81C 111.425,83.7071 114.091,85.2071 117.5,85.5C 123.056,82.7783 128.223,79.445 133,75.5C 134.734,76.4665 135.568,77.9665 135.5,80C 134.875,83.584 133.208,86.584 130.5,89C 126.708,91.9609 122.874,94.1276 119,95.5C 107.648,94.6637 102.148,88.4971 102.5,77C 103.878,68.7987 104.878,60.632 105.5,52.5C 106.191,50.1088 107.191,50.1088 108.5,52.5C 111.489,46.5136 115.822,41.847 121.5,38.5 Z M 121.5,49.5 C 124.205,49.3802 124.872,50.3802 123.5,52.5C 121.684,53.8149 120.017,55.3149 118.5,57C 117.5,57.6667 116.5,57.6667 115.5,57C 117.334,54.3367 119.334,51.8367 121.5,49.5 Z"/></g>
<g><path style="opacity:0.926" fill="#2f5de1" d="M 70.5,40.5 C 78.9292,39.917 82.2625,43.5837 80.5,51.5C 79.6667,51.8333 78.8333,52.1667 78,52.5C 70.0953,49.6702 63.2619,51.5036 57.5,58C 58.1199,60.2123 59.2866,62.0456 61,63.5C 68.5778,66.1369 76.0778,68.9702 83.5,72C 84.5794,74.043 86.246,75.3763 88.5,76C 87.8496,79.7236 86.5163,83.2236 84.5,86.5C 81.306,88.4634 77.9727,90.13 74.5,91.5C 67.1043,92.2919 59.6043,92.2919 52,91.5C 43.9981,86.8688 43.6647,81.8688 51,76.5C 52.457,78.6579 54.2903,80.4912 56.5,82C 62.1667,82.6667 67.8333,82.6667 73.5,82C 75.0614,81.059 76.3947,79.8924 77.5,78.5C 74.71,77.4032 71.8766,76.4032 69,75.5C 68.228,75.6448 67.5613,75.9781 67,76.5C 64.4101,73.7846 61.2435,71.9512 57.5,71C 49.6444,64.3495 48.4777,56.5162 54,47.5C 54.3333,47.8333 54.6667,48.1667 55,48.5C 56.1667,47.3333 57.3333,46.1667 58.5,45C 62.6096,43.4852 66.6096,41.9852 70.5,40.5 Z"/></g>
<g><path style="opacity:0.859" fill="#fc0404" d="M 14.5,43.5 C 18.7836,42.9229 21.7836,44.5896 23.5,48.5C 21.0441,51.3493 20.3774,54.516 21.5,58C 18.9234,65.3647 18.2567,72.8647 19.5,80.5C 21.2954,78.2975 23.6288,77.1308 26.5,77C 27.3366,75.9887 27.67,74.8221 27.5,73.5C 29.6847,73.1119 31.518,72.1119 33,70.5C 35.6271,70.8053 37.4604,72.1386 38.5,74.5C 33.5686,82.8953 26.4019,88.562 17,91.5C 11.4787,88.2911 8.97873,83.4578 9.5,77C 10.6075,70.8772 11.6075,64.7106 12.5,58.5C 12.1667,57.8333 11.8333,57.1667 11.5,56.5C 11.8754,51.9049 12.8754,47.5715 14.5,43.5 Z"/></g>
</svg>
